<?xml version="1.0" encoding="UTF-8" standalone="no"?>
<!-- Created with Inkscape (http://www.inkscape.org/) -->

<svg
   width="74.728058mm"
   height="8.5632458mm"
   viewBox="0 0 74.728058 8.5632458"
   version="1.1"
   id="svg5"
   xml:space="preserve"
   inkscape:version="1.2.2 (b0a8486, 2022-12-01)"
   sodipodi:docname="marlin+oyster.svg"
   xmlns:inkscape="http://www.inkscape.org/namespaces/inkscape"
   xmlns:sodipodi="http://sodipodi.sourceforge.net/DTD/sodipodi-0.dtd"
   xmlns="http://www.w3.org/2000/svg"
   xmlns:svg="http://www.w3.org/2000/svg"><sodipodi:namedview
     id="namedview7"
     pagecolor="#ffffff"
     bordercolor="#000000"
     borderopacity="0.25"
     inkscape:showpageshadow="2"
     inkscape:pageopacity="0.0"
     inkscape:pagecheckerboard="0"
     inkscape:deskcolor="#d1d1d1"
     inkscape:document-units="mm"
     showgrid="true"
     inkscape:zoom="2.7664827"
     inkscape:cx="131.75575"
     inkscape:cy="-27.652442"
     inkscape:window-width="1920"
     inkscape:window-height="1136"
     inkscape:window-x="1004"
     inkscape:window-y="2187"
     inkscape:window-maximized="1"
     inkscape:current-layer="g113"><inkscape:grid
       type="xygrid"
       id="grid9"
       originx="-48.972919"
       originy="-23.769632" /></sodipodi:namedview><defs
     id="defs2"><clipPath
       id="clip0_2769_9185"><rect
         width="118.677"
         height="29"
         fill="#ffffff"
         id="rect92"
         x="0"
         y="0" /></clipPath></defs><g
     inkscape:label="Layer 1"
     inkscape:groupmode="layer"
     id="layer1"
     transform="translate(-48.972921,-23.769633)"><g
       style="fill:none"
       id="g113"
       transform="matrix(0.26759461,0,0,0.26759461,94.041139,23.890798)"><g
         clip-path="url(#clip0_2769_9185)"
         id="g90"
         transform="matrix(0.93395225,0,0,0.93395225,6.4559789e-5,4.4636877)"><path
           d="M 4.2007,15.954 C 2.37535,10.7297 5.34207,7.80075 6.69745,6.78527 7.07511,6.50412 7.45276,6.21878 7.83042,5.93344 9.1858,4.90956 12.8197,2.8786 17.3306,6.0845 c 2.4087,1.71206 4.2718,5.048 5.346,8.4805 C 21.5898,8.79525 18.6231,3.85212 15.7948,1.89669 13.7681,0.48676 11.8756,0 10.2307,0 7.65838,0 5.69036,1.19172 4.71684,1.93026 4.38534,2.18203 4.05384,2.42961 3.72234,2.68138 2.11519,3.8773 -1.40543,7.3056 0.604552,13.3146 1.69557,16.575 5.61902,20.8006 10.8601,23.4484 7.8598,21.4636 5.17842,18.7487 4.2007,15.954 Z"
           fill="#3840c6"
           id="path72" /><path
           d="m 8.98832,18.6436 c -1.31341,-3.7933 0.86442,-5.9334 1.85888,-6.6803 0.2686,-0.2014 0.5372,-0.4029 0.8057,-0.6043 0.9945,-0.7511 3.6549,-2.24495 6.9322,0.0714 1.2546,0.8854 2.2911,2.354 3.0548,4.0157 C 20.6832,12.0808 18.9208,8.75737 16.6044,7.10826 15.0477,6.00046 13.6167,5.6228 12.3956,5.6228 10.6081,5.6228 9.26108,6.42848 8.58968,6.93622 8.21202,7.22156 7.83017,7.5069 7.44831,7.79224 6.31114,8.64407 3.83538,11.0989 5.38378,15.5384 6.32373,18.2324 9.04287,20.8592 12.018,22.714 10.6206,21.5138 9.48767,20.1039 8.98413,18.6394 Z"
           fill="#2db7e2"
           id="path74" /><path
           d="m 21.0103,24.6485 c 0.5623,-0.4238 0.8728,-1.5023 0.8518,-2.9667 -0.0461,-3.1094 -1.5903,-7.5196 -4.0031,-9.2233 -1.0575,-0.7469 -2.0184,-1.0071 -2.8535,-1.0071 -1.1455,0 -2.0393,0.4952 -2.5974,0.9148 -0.2686,0.2014 -0.5371,0.407 -0.8099,0.6084 -0.9609,0.7176 -2.42539,2.3583 -1.4225,5.2621 0.9651,2.7905 4.7753,5.5012 7.7462,6.4118 1.3973,0.428 2.5219,0.428 3.0842,0.0042 z"
           fill="#3840c6"
           id="path76" /><path
           d="m 40.7199,21.9041 c -5.4844,0 -9.966,-4.1207 -9.966,-9.966 0,-5.84533 4.4816,-9.93664 9.966,-9.93664 5.4844,0 9.9366,4.12068 9.9366,9.93664 0,5.8159 -4.427,9.966 -9.9366,9.966 z m 0,-3.4787 c 3.508,0 5.9292,-2.5345 5.9292,-6.4831 0,-3.94865 -2.4212,-6.42861 -5.9292,-6.42861 -3.508,0 -5.9544,2.47576 -5.9544,6.42861 0,3.9528 2.4212,6.4831 5.9544,6.4831 z"
           fill="#313537"
           id="path78"
           style="fill:#525252;fill-opacity:1" /><path
           d="m 63.4595,6.28984 h 4.1458 L 58.059,28.9997 h -4.1459 l 3.3402,-7.6832 -6.181,-15.03086 h 4.3682 l 3.978,10.77166 4.0368,-10.77166 z"
           fill="#313537"
           id="path80"
           style="fill:#525252;fill-opacity:1" /><path
           d="m 74.898,21.9587 c -3.8689,0 -6.5671,-2.2533 -6.7349,-5.1235 h 3.9234 c 0.1385,1.1707 1.2253,2.0603 2.7821,2.0603 1.5568,0 2.3667,-0.6966 2.3667,-1.5862 0,-2.7569 -8.7113,-1.0028 -8.7113,-6.6509 0,-2.55973 2.2827,-4.62007 6.0971,-4.62007 3.8143,0 5.9837,2.03097 6.2061,5.09417 h -3.7304 c -0.1133,-1.19589 -1.0574,-2.00576 -2.589,-2.00576 -1.4477,0 -2.1989,0.58327 -2.1989,1.47706 0,2.8115 8.5435,1.0574 8.6568,6.7097 0,2.6437 -2.3121,4.6494 -6.0677,4.6494 z"
           fill="#313537"
           id="path82"
           style="fill:#525252;fill-opacity:1" /><path
           d="M 84.084,9.48745 H 82.2461 V 6.28574 H 84.084 V 2.47559 h 3.9235 v 3.81435 h 3.4535 v 3.20171 h -3.4535 v 7.46085 c 0,1.0281 0.4154,1.4771 1.6407,1.4771 h 1.8086 v 3.2856 h -2.4506 c -2.9499,0 -4.9264,-1.2505 -4.9264,-4.7879 V 9.49584 Z"
           fill="#313537"
           id="path84"
           style="fill:#525252;fill-opacity:1" /><path
           d="m 100.306,21.9587 c -4.4814,0 -7.7376,-3.1177 -7.7376,-7.9602 0,-4.84239 3.1723,-7.96017 7.7376,-7.96017 4.566,0 7.599,3.03386 7.599,7.62447 0,0.4994 -0.029,1.0029 -0.113,1.5023 H 96.5212 c 0.193,2.2827 1.754,3.5626 3.7008,3.5626 1.67,0 2.589,-0.8351 3.089,-1.8632 h 4.204 c -0.835,2.8409 -3.394,5.0942 -7.209,5.0942 z m -3.7554,-9.4079 h 7.3184 c -0.055,-2.0309 -1.67,-3.31076 -3.672,-3.31076 -1.8631,0 -3.3401,1.19596 -3.6464,3.31076 z"
           fill="#313537"
           id="path86"
           style="fill:#525252;fill-opacity:1" /><path
           d="m 113.944,21.7069 h -3.898 V 6.29003 h 3.898 v 2.39184 c 0.974,-1.58617 2.589,-2.61424 4.734,-2.61424 v 4.09127 h -1.029 c -2.312,0 -3.701,0.8896 -3.701,3.8689 v 7.6833 z"
           fill="#313537"
           id="path88"
           style="fill:#525252;fill-opacity:1" /></g></g><g
       style="fill:none"
       id="g332"
       transform="matrix(0.2925558,0,0,0.2925558,48.97293,23.769633)"><path
         fill-rule="evenodd"
         clip-rule="evenodd"
         d="M 26.028,0.798008 C 25.7742,0.544217 25.4729,0.343069 25.1411,0.206122 24.8094,0.0691751 24.4539,-8.71127e-4 24.095,8.17688e-6 H 24.088 C 23.7284,-7.167e-5 23.3724,0.0714179 23.0407,0.210311 22.709,0.349204 22.4082,0.552723 22.156,0.809008 L 0.797995,22.269 C 0.543621,22.5229 0.34212,22.8248 0.205146,23.1571 0.0681725,23.4894 -0.00155575,23.8456 -5.21553e-6,24.205 0.00199478,24.936 0.288995,25.623 0.806995,26.139 c 0.253155,0.2538 0.554025,0.4549 0.885265,0.5919 0.33124,0.1369 0.6863,0.207 1.04473,0.2061 0.733,0 1.424,-0.287 1.942,-0.806 L 26.036,4.67001 C 26.5472,4.15483 26.8333,3.45809 26.8318,2.73236 26.8303,2.00663 26.5413,1.31107 26.028,0.798008 Z"
         fill="#2db8e3"
         id="path317" /><path
         fill-rule="evenodd"
         clip-rule="evenodd"
         d="M 38.428,0.261019 C 37.9274,0.0519247 37.3758,-0.00276724 36.8439,0.103967 36.312,0.210701 35.8241,0.473988 35.443,0.860019 L 14.083,22.322 c -0.5116,0.5151 -0.7979,1.2121 -0.7961,1.9381 0.0019,0.726 0.2918,1.4215 0.8061,1.9339 0.5154,0.5116 1.2126,0.7977 1.9388,0.7957 0.7261,-0.0021 1.4218,-0.2922 1.9342,-0.8067 L 34.644,9.42502 V 24.252 c 5e-4,0.726 0.2892,1.4221 0.8025,1.9355 0.5134,0.5134 1.2095,0.802 1.9355,0.8025 0.726,-5e-4 1.4221,-0.2891 1.9355,-0.8025 0.5133,-0.5134 0.802,-1.2095 0.8025,-1.9355 V 2.79202 C 40.1216,2.24972 39.9615,1.71926 39.6601,1.26842 39.3587,0.817581 38.9297,0.466841 38.428,0.261019 Z"
         fill="#3840c7"
         id="path319" /><path
         fill-rule="evenodd"
         clip-rule="evenodd"
         d="m 78.207,23.2479 h -5.884 v -2.438 h 0.742 v -5.232 c 0,-1.267 -0.222,-2.163 -0.668,-2.688 -0.445,-0.525 -1.074,-0.788 -1.886,-0.788 -1.052,0 -1.818,0.356 -2.304,1.07 -0.487,0.715 -0.74,1.525 -0.758,2.437 v 5.2 h 1.99 v 2.439 h -5.883 v -2.438 h 0.712 v -5.232 c 0,-1.267 -0.222,-2.163 -0.668,-2.688 -0.446,-0.525 -1.066,-0.788 -1.858,-0.788 -1.031,0 -1.794,0.352 -2.289,1.053 -0.497,0.705 -0.752,1.514 -0.773,2.423 v 5.232 h 2.498 v 2.438 h -7.67 v -2.438 H 55.5 v -8.44 H 53.538 V 9.90385 h 5.142 v 2.19805 c 0.4036,-0.7199 0.9747,-1.3318 1.665,-1.784 0.694,-0.45505 1.534,-0.68405 2.526,-0.68405 0.99,0 1.883,0.243 2.676,0.73005 0.792,0.486 1.345,1.243 1.664,2.274 0.395,-0.913 0.97,-1.64 1.723,-2.187 0.754,-0.54405 1.675,-0.81705 2.766,-0.81705 1.206,0 2.267,0.38805 3.178,1.16105 0.912,0.772 1.368,1.982 1.368,3.625 v 6.39 h 1.961 z m 9.75,-5.29 v -0.478 l -1.041,-0.118 c -0.3653,-0.0393 -0.7326,-0.0587 -1.1,-0.058 -0.792,0 -1.5,0.138 -2.124,0.414 -0.624,0.279 -0.937,0.834 -0.937,1.667 0,1.208 0.645,1.812 1.932,1.812 0.752,0 1.468,-0.27 2.139,-0.817 0.675,-0.546 1.052,-1.353 1.13,-2.422 z m -7.252,-7.075 c 0.99,-0.476 1.873,-0.803 2.646,-0.98005 0.772,-0.18 1.663,-0.269 2.674,-0.269 1.487,0 2.71,0.37705 3.671,1.13105 0.96,0.752 1.443,1.881 1.443,3.388 v 6.003 c 0,0.793 0.326,1.19 0.98,1.19 0.178,0 0.407,-0.041 0.683,-0.12 l 0.03,1.756 c -0.651,0.3736 -1.3894,0.5679 -2.14,0.563 -1.684,0 -2.597,-0.882 -2.734,-2.646 v -0.058 c -0.398,0.693 -0.957,1.318 -1.679,1.871 -0.724,0.555 -1.62,0.833 -2.69,0.833 -0.932,0 -1.848,-0.281 -2.75,-0.849 -0.902,-0.563 -1.353,-1.548 -1.353,-2.956 0,-1.645 0.656,-2.728 1.963,-3.255 1.307,-0.525 2.725,-0.786 4.25,-0.786 0.376,0 0.761,0.01 1.16,0.028 0.396,0.02 0.762,0.051 1.099,0.09 v -0.743 c 0,-0.793 -0.14,-1.505 -0.416,-2.14 -0.278,-0.635 -0.97,-0.952 -2.08,-0.952 -0.416,0 -0.809,0.03 -1.175,0.09 -0.3692,0.0597 -0.726,0.18 -1.056,0.356 l -0.533,2.05 -2.556,-0.265 z m 21.607,-1.18905 c 0.891,0 1.724,0.249 2.496,0.74205 l 0.565,4.16 -2.466,0.299 -0.505,-2.289 c -0.398,-0.197 -0.733,-0.297 -1.011,-0.297 -0.555,0 -1.036,0.229 -1.443,0.683 -0.405,0.456 -0.608,1.09 -0.608,1.902 v 5.916 h 2.644 v 2.436 h -7.816 v -2.436 h 1.992 v -8.44 H 94.078 V 9.90185 h 5.024 v 2.49605 c 0.2196,-0.7227 0.6119,-1.381 1.143,-1.918 0.525,-0.52505 1.216,-0.78605 2.067,-0.78605 z m 11.355,13.55305 h -7.135 v -2.438 h 1.992 V 5.23385 h -2.11 v -2.436 h 5.26 V 20.8079 h 1.993 z m 3.359,-16.10905 h 3.24 v -3.508 h -3.24 z m 5.32,16.10705 h -7.134 v -2.438 h 1.992 v -8.44 h -2.11 V 9.90085 h 5.26 V 20.8069 h 1.992 z m 17.655,0.003 h -7.132 v -2.438 h 1.96 v -5.232 c 0,-1.267 -0.225,-2.163 -0.682,-2.688 -0.456,-0.525 -1.09,-0.788 -1.902,-0.788 -1.011,0 -1.809,0.326 -2.394,0.98 -0.585,0.655 -0.886,1.458 -0.906,2.41 v 5.318 h 1.991 v 2.438 h -7.163 v -2.438 h 1.993 v -8.44 h -2.082 V 9.90385 h 5.261 v 2.16805 c 0.932,-1.626 2.409,-2.43805 4.429,-2.43805 1.268,0 2.357,0.38805 3.27,1.16105 0.91,0.772 1.367,1.982 1.367,3.625 v 6.39 h 1.99 z"
         fill="#525252"
         id="path321" /></g></g></svg>
